<svg xmlns="http://www.w3.org/2000/svg" version="1.1" xmlns:xlink="http://www.w3.org/1999/xlink" xmlns:svgjs="http://svgjs.dev/svgjs" width="1000" height="623" viewBox="0 0 1000 623"><g transform="matrix(1,0,0,1,-0.6060606060606233,0.2522267206477409)"><svg viewBox="0 0 396 247" data-background-color="#ffffff" preserveAspectRatio="xMidYMid meet" height="623" width="1000" xmlns="http://www.w3.org/2000/svg" xmlns:xlink="http://www.w3.org/1999/xlink"><defs></defs><g id="tight-bounds" transform="matrix(1,0,0,1,0.2400000000000091,-0.09999999999999432)"><svg viewBox="0 0 395.52 247.2" height="247.2" width="395.52"><g><svg></svg></g><g><svg viewBox="0 0 395.52 247.2" height="247.2" width="395.52"><g transform="matrix(1,0,0,1,75.54432,71.61742961894953)"><svg viewBox="0 0 244.43135999999998 103.96514076210093" height="103.96514076210093" width="244.43135999999998"><g><svg viewBox="0 0 244.43135999999998 103.96514076210093" height="103.96514076210093" width="244.43135999999998"><g><svg viewBox="0 0 244.43136 103.96514076210094" height="103.96514076210093" width="244.43135999999998"><g><svg viewBox="0 0 244.43136 103.96514076210094" height="103.96514076210094" width="244.43136"><g><svg viewBox="0 0 244.43136 103.96514076210094" height="103.96514076210094" width="244.43136"><g><svg viewBox="0 0 244.43136 103.96514076210094" height="103.96514076210094" width="244.43136"><g transform="matrix(1,0,0,1,0,0)"><svg width="244.43136" viewBox="3.25 -40.29999923706055 97.08999633789062 41.29999923706055" height="103.96514076210094" data-palette-color="#aa3246"><path d="M25.25-40.3Q28-40.3 31.65-39.55 35.3-38.8 36.95-37.95L36.95-37.95 36.95-27.9 33.95-27.9Q29.55-35.5 22.35-35.5L22.35-35.5Q19.25-35.5 16.73-33.65 14.2-31.8 12.73-28.53 11.25-25.25 11.25-21.15L11.25-21.15Q11.25-16.5 12.7-12.65 14.15-8.8 17.1-6.48 20.05-4.15 24.4-4.15L24.4-4.15Q28.7-4.15 36.9-10L36.9-10 38.6-7.25 29.4-0.1Q27.4 0.55 25.55 0.78 23.7 1 21.6 1L21.6 1Q16.2 1 12.03-1.55 7.85-4.1 5.55-8.58 3.25-13.05 3.25-18.75L3.25-18.75Q3.25-24.6 6.73-29.58 10.2-34.55 15.38-37.43 20.55-40.3 25.25-40.3L25.25-40.3ZM69.65-10.6L69.65 0.9 66.4 0 43.55 0 43.55-2.05Q49.9-7.2 53.2-10.25 56.5-13.3 57.8-15.25 59.1-17.2 59.1-18.85L59.1-18.85Q59.1-21.2 57.45-22.7 55.8-24.2 53.2-24.2L53.2-24.2Q49.95-24.2 45-20.75L45-20.75 43.5-23 50.6-28.65Q52.15-29.2 54.6-29.2L54.6-29.2Q58.25-29.2 61.02-28.28 63.8-27.35 65.3-25.65 66.8-23.95 66.8-21.7L66.8-21.7Q66.8-19.6 63.82-15.93 60.85-12.25 54.4-7.05L54.4-7.05 65.95-7.05 67.65-11.25 69.65-10.6ZM89.89-27.2Q92.09-27.2 94.94-26.63 97.8-26.05 99.09-25.35L99.09-25.35 99.09-17.05 96.69-17.05Q94.8-19.55 92.3-20.98 89.8-22.4 87.14-22.4L87.14-22.4Q85.05-22.4 83.94-20.48 82.84-18.55 82.84-14.9L82.84-14.9Q82.84-10.45 84.75-7.48 86.64-4.5 90.25-4.5L90.25-4.5Q93.3-4.5 98.84-8.25L98.84-8.25 100.34-5.95 92.84-0.05Q90.64 0.5 87.34 0.5L87.34 0.5Q83.89 0.5 81.17-1.23 78.44-2.95 76.89-5.93 75.34-8.9 75.34-12.5L75.34-12.5Q75.34-16.4 77.59-19.78 79.84-23.15 83.27-25.18 86.69-27.2 89.89-27.2L89.89-27.2Z" opacity="1" transform="matrix(1,0,0,1,0,0)" fill="#aa3246" class="undefined-text-0" data-fill-palette-color="primary" id="text-0"></path></svg></g></svg></g></svg></g></svg></g></svg></g></svg></g></svg></g><path d="M166.584 65.617L166.584 14.824 384.135 14.824 384.135 232.376 166.584 232.376 166.584 181.583 175.96 181.583 175.96 223 374.759 223 374.759 24.2 175.96 24.2 175.96 65.617Z" fill="#aa3246" stroke="transparent" data-fill-palette-color="primary"></path></svg></g></svg><rect width="395.52" height="247.2" fill="none" stroke="none" visibility="hidden"></rect></g></svg></g></svg>