<svg xmlns="http://www.w3.org/2000/svg" height="1200" width="1600" version="1.1" xmlns:xlink="http://www.w3.org/1999/xlink" xmlns:svgjs="http://svgjs.com/svgjs"><rect fill="#f3ebe9" width="1600" height="1200"></rect><g><path d="M1411.75 712.64C1403.64 665.25 1360.55 607.49 1373.28 558.97 1376.25 547.48 1382.61 537.53 1387.95 526.86 1418.31 467.15 1403.64 409.09 1373.48 352.56 1359.84 326.81 1344.96 301.78 1329.06 277.36 1310.18 248.43 1291.21 218.27 1264.43 195.81 1234.27 170.78 1197.54 162.67 1159.07 160.52 1130.14 159.08 1101.11 159.29 1071.98 160.72 1008.07 164.11 944.26 172.62 880.96 182.57 818.07 192.32 755.39 202.99 692.1 209.55 657.01 212.53 621.93 213.97 586.95 213.35 549.81 212.73 512.57 210.37 475.13 210.79 344.84 212.22 189.52 255.41 184.6 411.34 183.16 462.74 196.29 513.31 204.81 564.1 224.81 683.51 224.81 812.77 305.55 911.35 345.66 959.98 406.29 989.32 465.99 1005.53 528.47 1022.35 594.13 1029.94 658.55 1035.28 724.21 1040.82 790.07 1041.83 855.72 1038.66 927.33 1035.28 998.94 1027.58 1069.52 1014.86 1135.17 1003.17 1201.65 988.91 1263.1 961.72 1326.39 933.72 1379.33 884.17 1404.15 818.92 1417.29 785.07 1417.9 748.14 1411.75 712.64Z" fill="#dff1e3" opacity="1" stroke-width="4" stroke="none"></path></g><g><path d="M1434.78 761.63C1116.06 953.94 896.86 893.42 818.86 815.87 715.76 713.22 810.35 481.91 982.93 429.91 1155.51 377.91 1134 595.77 886.1 723.97 661.97 840.08 423.49 783.15 373.28 623.11 341.46 520.91 368.35 368.5 489.39 292.74 597.42 225.05 637.76 369.84 495.21 403.91 323.97 445.15 203.39 288.26 167.98 235.81" stroke="#231f20" stroke-width="4" stroke-linecap="round" stroke-linejoin="round" opacity="1" fill="none"></path></g><g><path d="M1422.6 310.57L1284.06 193.2 1086.59 429.62 1422.6 310.57Z" fill="#ffffff" opacity="1" stroke-width="4" stroke="none"></path></g><g><path d="M818.52 270.78H576.07V929.41H818.52V270.78Z" fill="#444444" opacity="1" stroke-width="4" stroke="none"></path><path d="M814.73 270.78L1052.62 270.59V929.22L814.35 929.41 814.73 270.78Z" fill="#ffffff" opacity="1" stroke-width="4" stroke="none"></path></g><g><path d="M207.63 811.13L423.43 916.09 454.62 855.18C454.62 855.18 535.14 813.9 556.57 766.53 579.58 715.51 561.67 638.9 561.67 638.9 561.67 638.9 606.86 515.94 633.17 445.98 659.49 376.02 652.97 337.47 630.78 328.7 597.43 315.73 574.72 343.93 548.6 402.07 527.85 448.2 505.69 504.86 505.69 504.86 505.69 504.86 468.26 453.61 420.42 485.95 420.42 485.95 379.34 457.97 343.94 490.53 343.94 490.53 296.51 462.49 261.46 520.67 251.6 536.71 220.12 603.45 248.25 624.65 248.25 624.65 223.52 696.05 236.94 748.46L207.63 811.13Z" fill="#5ec576" opacity="1" stroke-width="4" stroke="none"></path><path d="M420.42 485.95C391.67 525.68 352.28 623.64 393.41 645.27 407.6 652.73 421 649.27 432.55 638.33" stroke="#000000" stroke-width="4" stroke-linecap="round" stroke-linejoin="round" opacity="1" fill="none"></path><path d="M343.94 490.53C308.13 538.86 289.2 623.06 328.28 637.76 356.37 648.33 376.04 615.8 376.04 615.8" stroke="#000000" stroke-width="4" stroke-linecap="round" stroke-linejoin="round" opacity="1" fill="none"></path><path d="M237.11 601.77C237.77 635.57 286.85 648.51 307.83 609.68" stroke="#000000" stroke-width="4" stroke-linecap="round" stroke-linejoin="round" opacity="1" fill="none"></path><path d="M551.05 627.05C540.1 599.14 464.91 568.1 440.73 559 405.38 545.7 400.9 573.97 407.89 595.49 419.71 631.8 455.05 662.08 455.05 662.08 446.26 683.2 440.7 705.32 438.7 728.14" stroke="#000000" stroke-width="4" stroke-linecap="round" stroke-linejoin="round" opacity="1" fill="none"></path><path d="M479.59 546.01L469.21 570.78" stroke="#000000" stroke-width="4" stroke-linecap="round" stroke-linejoin="round" opacity="1" fill="none"></path><path d="M454.62 855.18L236.94 748.46" stroke="#000000" stroke-width="4" stroke-linecap="round" stroke-linejoin="round" opacity="1" fill="none"></path></g><g><path d="M1439.03 471.05L1387.97 556.86 1242.98 469.22 1439.03 471.05Z" fill="#ffffff" opacity="1" stroke-width="4" stroke="none"></path></g><g><path d="M977.21 766.95C977.56 728.82 985.88 691.19 1001.64 656.47 1017.38 621.74 1040.24 590.69 1068.69 565.32 1072.16 609.33 1051.89 643.2 1072.16 673.87 1082.3 599.46 1119.64 599.46 1143.37 514.64 1211.12 609.59 1150.31 673.87 1187.38 748.55 1187.38 748.55 1211.12 718.15 1204.45 643.47 1238.32 667.2 1265.53 714.94 1265.53 767.22 1265.45 805.43 1250.22 842.05 1223.17 869.03 1196.1 896.02 1159.46 911.15 1121.24 911.12 1083.02 911.08 1046.4 895.88 1019.38 868.84 992.39 841.81 977.21 805.17 977.21 766.95Z" fill="#444444" opacity="1" stroke-width="4" stroke="none"></path></g></svg>